<svg width="1189" height="209" viewBox="0 0 1189 209" fill="none" xmlns="http://www.w3.org/2000/svg">
<path d="M32.542 75.618C37.9167 68.2047 45.2373 62.1813 54.504 57.548C63.956 52.7293 74.4273 50.32 85.918 50.32C99.4473 50.32 111.679 53.5633 122.614 60.05C133.549 66.5367 142.167 75.8033 148.468 87.85C154.769 99.7113 157.92 113.333 157.92 128.716C157.92 144.099 154.769 157.906 148.468 170.138C142.167 182.185 133.456 191.637 122.336 198.494C111.401 205.166 99.262 208.502 85.918 208.502C74.0567 208.502 63.4927 206.185 54.226 201.552C45.1447 196.919 37.9167 190.988 32.542 183.76V206H0.850001V0.279997H32.542V75.618ZM125.672 128.716C125.672 118.152 123.448 109.071 119 101.472C114.737 93.688 108.992 87.85 101.764 83.958C94.7213 79.8807 87.1227 77.842 78.968 77.842C70.9987 77.842 63.4 79.8807 56.172 83.958C49.1293 88.0353 43.384 93.966 38.936 101.75C34.6733 109.534 32.542 118.708 32.542 129.272C32.542 139.836 34.6733 149.103 38.936 157.072C43.384 164.856 49.1293 170.787 56.172 174.864C63.4 178.941 70.9987 180.98 78.968 180.98C87.1227 180.98 94.7213 178.941 101.764 174.864C108.992 170.601 114.737 164.485 119 156.516C123.448 148.547 125.672 139.28 125.672 128.716ZM329.65 125.658C329.65 131.403 329.28 136.593 328.538 141.226H211.5C212.427 153.458 216.967 163.281 225.122 170.694C233.277 178.107 243.285 181.814 255.146 181.814C272.197 181.814 284.243 174.679 291.286 160.408H325.48C320.847 174.493 312.414 186.077 300.182 195.158C288.135 204.054 273.123 208.502 255.146 208.502C240.505 208.502 227.346 205.259 215.67 198.772C204.179 192.1 195.098 182.833 188.426 170.972C181.939 158.925 178.696 145.025 178.696 129.272C178.696 113.519 181.847 99.7113 188.148 87.85C194.635 75.8033 203.623 66.5367 215.114 60.05C226.79 53.5633 240.134 50.32 255.146 50.32C269.602 50.32 282.483 53.4707 293.788 59.772C305.093 66.0733 313.897 74.9693 320.198 86.46C326.499 97.7653 329.65 110.831 329.65 125.658ZM296.568 115.65C296.383 103.974 292.213 94.6147 284.058 87.572C275.903 80.5293 265.803 77.008 253.756 77.008C242.821 77.008 233.462 80.5293 225.678 87.572C217.894 94.4293 213.261 103.789 211.778 115.65H296.568ZM350.274 128.716C350.274 113.333 353.425 99.7113 359.726 87.85C366.213 75.9887 374.924 66.8147 385.858 60.328C396.978 53.656 409.21 50.32 422.554 50.32C434.601 50.32 445.072 52.7293 453.968 57.548C463.05 62.1813 470.278 68.0193 475.652 75.062V52.822H507.622V206H475.652V183.204C470.278 190.432 462.957 196.455 453.69 201.274C444.424 206.093 433.86 208.502 421.998 208.502C408.84 208.502 396.793 205.166 385.858 198.494C374.924 191.637 366.213 182.185 359.726 170.138C353.425 157.906 350.274 144.099 350.274 128.716ZM475.652 129.272C475.652 118.708 473.428 109.534 468.98 101.75C464.718 93.966 459.065 88.0353 452.022 83.958C444.98 79.8807 437.381 77.842 429.226 77.842C421.072 77.842 413.473 79.8807 406.43 83.958C399.388 87.85 393.642 93.688 389.194 101.472C384.932 109.071 382.8 118.152 382.8 128.716C382.8 139.28 384.932 148.547 389.194 156.516C393.642 164.485 399.388 170.601 406.43 174.864C413.658 178.941 421.257 180.98 429.226 180.98C437.381 180.98 444.98 178.941 452.022 174.864C459.065 170.787 464.718 164.856 468.98 157.072C473.428 149.103 475.652 139.836 475.652 129.272ZM538.684 129.272C538.684 113.519 541.835 99.7113 548.136 87.85C554.623 75.8033 563.519 66.5367 574.824 60.05C586.13 53.5633 599.103 50.32 613.744 50.32C632.278 50.32 647.568 54.768 659.614 63.664C671.846 72.3747 680.094 84.8847 684.356 101.194H650.162C647.382 93.5953 642.934 87.6647 636.818 83.402C630.702 79.1393 623.011 77.008 613.744 77.008C600.771 77.008 590.392 81.6413 582.608 90.908C575.01 99.9893 571.21 112.777 571.21 129.272C571.21 145.767 575.01 158.647 582.608 167.914C590.392 177.181 600.771 181.814 613.744 181.814C632.092 181.814 644.232 173.752 650.162 157.628H684.356C679.908 173.196 671.568 185.613 659.336 194.88C647.104 203.961 631.907 208.502 613.744 208.502C599.103 208.502 586.13 205.259 574.824 198.772C563.519 192.1 554.623 182.833 548.136 170.972C541.835 158.925 538.684 145.025 538.684 129.272ZM782.382 208.502C767.926 208.502 754.86 205.259 743.184 198.772C731.508 192.1 722.334 182.833 715.662 170.972C708.99 158.925 705.654 145.025 705.654 129.272C705.654 113.704 709.083 99.8967 715.94 87.85C722.797 75.8033 732.157 66.5367 744.018 60.05C755.879 53.5633 769.131 50.32 783.772 50.32C798.413 50.32 811.665 53.5633 823.526 60.05C835.387 66.5367 844.747 75.8033 851.604 87.85C858.461 99.8967 861.89 113.704 861.89 129.272C861.89 144.84 858.369 158.647 851.326 170.694C844.283 182.741 834.646 192.1 822.414 198.772C810.367 205.259 797.023 208.502 782.382 208.502ZM782.382 180.98C790.537 180.98 798.135 179.034 805.178 175.142C812.406 171.25 818.244 165.412 822.692 157.628C827.14 149.844 829.364 140.392 829.364 129.272C829.364 118.152 827.233 108.793 822.97 101.194C818.707 93.41 813.055 87.572 806.012 83.68C798.969 79.788 791.371 77.842 783.216 77.842C775.061 77.842 767.463 79.788 760.42 83.68C753.563 87.572 748.095 93.41 744.018 101.194C739.941 108.793 737.902 118.152 737.902 129.272C737.902 145.767 742.072 158.555 750.412 167.636C758.937 176.532 769.594 180.98 782.382 180.98ZM970.503 50.32C982.55 50.32 993.299 52.822 1002.75 57.826C1012.39 62.83 1019.89 70.2433 1025.27 80.066C1030.64 89.8887 1033.33 101.75 1033.33 115.65V206H1001.92V120.376C1001.92 106.661 998.488 96.19 991.631 88.962C984.774 81.5487 975.414 77.842 963.553 77.842C951.692 77.842 942.24 81.5487 935.197 88.962C928.34 96.19 924.911 106.661 924.911 120.376V206H893.219V52.822H924.911V70.336C930.1 64.0347 936.68 59.1233 944.649 55.602C952.804 52.0807 961.422 50.32 970.503 50.32ZM1129.36 208.502C1117.31 208.502 1106.47 206.371 1096.83 202.108C1087.38 197.66 1079.87 191.729 1074.31 184.316C1068.75 176.717 1065.79 168.285 1065.42 159.018H1098.22C1098.78 165.505 1101.83 170.972 1107.39 175.42C1113.14 179.683 1120.27 181.814 1128.8 181.814C1137.7 181.814 1144.55 180.146 1149.37 176.81C1154.38 173.289 1156.88 168.841 1156.88 163.466C1156.88 157.721 1154.1 153.458 1148.54 150.678C1143.16 147.898 1134.55 144.84 1122.68 141.504C1111.19 138.353 1101.83 135.295 1094.61 132.33C1087.38 129.365 1081.08 124.824 1075.7 118.708C1070.51 112.592 1067.92 104.53 1067.92 94.522C1067.92 86.3673 1070.33 78.954 1075.15 72.282C1079.96 65.4247 1086.82 60.05 1095.72 56.158C1104.8 52.266 1115.18 50.32 1126.85 50.32C1144.28 50.32 1158.27 54.768 1168.83 63.664C1179.58 72.3747 1185.33 84.3287 1186.07 99.526H1154.38C1153.82 92.6687 1151.04 87.2013 1146.04 83.124C1141.03 79.0467 1134.27 77.008 1125.74 77.008C1117.4 77.008 1111.01 78.5833 1106.56 81.734C1102.11 84.8847 1099.89 89.0547 1099.89 94.244C1099.89 98.3213 1101.37 101.75 1104.34 104.53C1107.3 107.31 1110.92 109.534 1115.18 111.202C1119.44 112.685 1125.74 114.631 1134.08 117.04C1145.2 120.005 1154.28 123.063 1161.33 126.214C1168.55 129.179 1174.76 133.627 1179.95 139.558C1185.14 145.489 1187.83 153.365 1188.01 163.188C1188.01 171.899 1185.6 179.683 1180.79 186.54C1175.97 193.397 1169.11 198.772 1160.21 202.664C1151.5 206.556 1141.22 208.502 1129.36 208.502Z" fill="#4AA69D"/>
</svg>
