<svg width="220" height="47" viewBox="0 0 220 47" fill="none" xmlns="http://www.w3.org/2000/svg">
<path d="M64.7054 18.8678C65.4278 17.8816 66.4117 17.0803 67.6571 16.4639C68.9275 15.8228 70.3348 15.5023 71.8791 15.5023C73.6975 15.5023 75.3414 15.9338 76.811 16.7967C78.2807 17.6597 79.4389 18.8925 80.2858 20.4951C81.1327 22.073 81.5561 23.8852 81.5561 25.9317C81.5561 27.9781 81.1327 29.8149 80.2858 31.4422C79.4389 33.0448 78.2682 34.3023 76.7737 35.2146C75.3041 36.1022 73.6726 36.546 71.8791 36.546C70.285 36.546 68.8652 36.2378 67.6198 35.6214C66.3992 35.005 65.4278 34.216 64.7054 33.2544V36.2131H60.4461V8.84525H64.7054V18.8678ZM77.222 25.9317C77.222 24.5263 76.9231 23.3182 76.3253 22.3073C75.7524 21.2717 74.9803 20.4951 74.0088 19.9773C73.0623 19.4349 72.041 19.1637 70.9451 19.1637C69.874 19.1637 68.8527 19.4349 67.8813 19.9773C66.9348 20.5197 66.1626 21.3087 65.5648 22.3443C64.9919 23.3798 64.7054 24.6003 64.7054 26.0056C64.7054 27.411 64.9919 28.6438 65.5648 29.704C66.1626 30.7395 66.9348 31.5285 67.8813 32.0709C68.8527 32.6134 69.874 32.8846 70.9451 32.8846C72.041 32.8846 73.0623 32.6134 74.0088 32.0709C74.9803 31.5039 75.7524 30.6902 76.3253 29.63C76.9231 28.5698 77.222 27.337 77.222 25.9317Z" fill="#4AA69D"/>
<path d="M104.637 25.5249C104.637 26.2892 104.587 26.9795 104.487 27.5959H88.7573C88.8818 29.2232 89.4921 30.53 90.5881 31.5162C91.684 32.5024 93.0291 32.9955 94.6233 32.9955C96.9149 32.9955 98.5339 32.0463 99.4805 30.1478H104.076C103.453 32.0216 102.32 33.5626 100.676 34.7708C99.057 35.9542 97.0394 36.546 94.6233 36.546C92.6555 36.546 90.887 36.1145 89.3177 35.2515C87.7734 34.3639 86.5529 33.1311 85.6562 31.5532C84.7843 29.9506 84.3484 28.1014 84.3484 26.0056C84.3484 23.9099 84.7719 22.073 85.6188 20.4951C86.4906 18.8925 87.6987 17.6597 89.243 16.7967C90.8122 15.9338 92.6057 15.5023 94.6233 15.5023C96.5661 15.5023 98.2973 15.9214 99.8167 16.7597C101.336 17.598 102.519 18.7815 103.366 20.3102C104.213 21.8142 104.637 23.5524 104.637 25.5249ZM100.19 24.1934C100.165 22.6401 99.605 21.395 98.509 20.4581C97.413 19.5212 96.0555 19.0527 94.4364 19.0527C92.9668 19.0527 91.7089 19.5212 90.6628 20.4581C89.6166 21.3704 88.9939 22.6155 88.7946 24.1934H100.19Z" fill="#4AA69D"/>
<path d="M107.408 25.9317C107.408 23.8852 107.832 22.073 108.679 20.4951C109.551 18.9171 110.721 17.6967 112.191 16.8337C113.685 15.9461 115.329 15.5023 117.123 15.5023C118.742 15.5023 120.149 15.8228 121.345 16.4639C122.565 17.0803 123.537 17.8569 124.259 18.7938V15.8351H128.556V36.2131H124.259V33.1805C123.537 34.142 122.553 34.9433 121.307 35.5844C120.062 36.2254 118.642 36.546 117.048 36.546C115.28 36.546 113.66 36.1022 112.191 35.2146C110.721 34.3023 109.551 33.0448 108.679 31.4422C107.832 29.8149 107.408 27.9781 107.408 25.9317ZM124.259 26.0056C124.259 24.6003 123.96 23.3798 123.362 22.3443C122.79 21.3087 122.03 20.5197 121.083 19.9773C120.137 19.4349 119.115 19.1637 118.02 19.1637C116.924 19.1637 115.902 19.4349 114.956 19.9773C114.009 20.4951 113.237 21.2717 112.639 22.3073C112.066 23.3182 111.78 24.5263 111.78 25.9317C111.78 27.337 112.066 28.5698 112.639 29.63C113.237 30.6902 114.009 31.5039 114.956 32.0709C115.927 32.6134 116.948 32.8846 118.02 32.8846C119.115 32.8846 120.137 32.6134 121.083 32.0709C122.03 31.5285 122.79 30.7395 123.362 29.704C123.96 28.6438 124.259 27.411 124.259 26.0056Z" fill="#4AA69D"/>
<path d="M132.731 26.0056C132.731 23.9099 133.154 22.073 134.001 20.4951C134.873 18.8925 136.068 17.6597 137.588 16.7967C139.107 15.9338 140.851 15.5023 142.819 15.5023C145.309 15.5023 147.364 16.094 148.983 17.2775C150.627 18.4363 151.736 20.1006 152.309 22.2703H147.713C147.34 21.2594 146.742 20.4704 145.92 19.9033C145.098 19.3363 144.064 19.0527 142.819 19.0527C141.075 19.0527 139.68 19.6691 138.634 20.9019C137.613 22.11 137.102 23.8113 137.102 26.0056C137.102 28.2 137.613 29.9136 138.634 31.1464C139.68 32.3791 141.075 32.9955 142.819 32.9955C145.285 32.9955 146.916 31.923 147.713 29.778H152.309C151.711 31.849 150.59 33.501 148.946 34.7338C147.302 35.9419 145.26 36.546 142.819 36.546C140.851 36.546 139.107 36.1145 137.588 35.2515C136.068 34.3639 134.873 33.1311 134.001 31.5532C133.154 29.9506 132.731 28.1014 132.731 26.0056Z" fill="#4AA69D"/>
<path d="M165.483 36.546C163.54 36.546 161.784 36.1145 160.215 35.2515C158.646 34.3639 157.413 33.1311 156.516 31.5532C155.62 29.9506 155.171 28.1014 155.171 26.0056C155.171 23.9346 155.632 22.0977 156.554 20.4951C157.475 18.8925 158.733 17.6597 160.327 16.7967C161.921 15.9338 163.702 15.5023 165.67 15.5023C167.638 15.5023 169.419 15.9338 171.013 16.7967C172.607 17.6597 173.865 18.8925 174.787 20.4951C175.708 22.0977 176.169 23.9346 176.169 26.0056C176.169 28.0767 175.696 29.9136 174.749 31.5162C173.803 33.1188 172.508 34.3639 170.864 35.2515C169.245 36.1145 167.451 36.546 165.483 36.546ZM165.483 32.8846C166.579 32.8846 167.601 32.6257 168.547 32.1079C169.519 31.5902 170.303 30.8135 170.901 29.778C171.499 28.7424 171.798 27.485 171.798 26.0056C171.798 24.5263 171.511 23.2812 170.938 22.2703C170.365 21.2348 169.606 20.4581 168.659 19.9403C167.713 19.4226 166.691 19.1637 165.595 19.1637C164.499 19.1637 163.478 19.4226 162.532 19.9403C161.61 20.4581 160.875 21.2348 160.327 22.2703C159.779 23.2812 159.505 24.5263 159.505 26.0056C159.505 28.2 160.066 29.9012 161.187 31.1094C162.332 32.2929 163.765 32.8846 165.483 32.8846Z" fill="#4AA69D"/>
<path d="M190.767 15.5023C192.386 15.5023 193.83 15.8351 195.101 16.5008C196.396 17.1666 197.405 18.1528 198.127 19.4595C198.85 20.7663 199.211 22.3443 199.211 24.1934V36.2131H194.989V24.8222C194.989 22.9976 194.528 21.6046 193.606 20.643C192.685 19.6568 191.427 19.1637 189.833 19.1637C188.238 19.1637 186.968 19.6568 186.022 20.643C185.1 21.6046 184.639 22.9976 184.639 24.8222V36.2131H180.38V15.8351H184.639V18.1651C185.337 17.3268 186.221 16.6734 187.292 16.205C188.388 15.7365 189.546 15.5023 190.767 15.5023Z" fill="#4AA69D"/>
<path d="M212.116 36.546C210.497 36.546 209.04 36.2624 207.745 35.6953C206.475 35.1036 205.466 34.3146 204.719 33.3284C203.971 32.3175 203.573 31.1957 203.523 29.9629H207.932C208.006 30.8258 208.417 31.5532 209.165 32.1449C209.937 32.712 210.896 32.9955 212.042 32.9955C213.237 32.9955 214.159 32.7736 214.807 32.3298C215.479 31.8614 215.815 31.2696 215.815 30.5546C215.815 29.7903 215.442 29.2232 214.694 28.8534C213.972 28.4835 212.814 28.0767 211.22 27.6329C209.675 27.2138 208.417 26.8069 207.446 26.4125C206.475 26.018 205.628 25.4139 204.905 24.6003C204.208 23.7866 203.859 22.7141 203.859 21.3827C203.859 20.2978 204.183 19.3116 204.831 18.424C205.478 17.5117 206.4 16.7967 207.595 16.2789C208.816 15.7612 210.211 15.5023 211.78 15.5023C214.122 15.5023 216.002 16.094 217.422 17.2775C218.867 18.4363 219.639 20.0266 219.738 22.0484H215.479C215.404 21.1361 215.031 20.4088 214.358 19.8664C213.686 19.3239 212.776 19.0527 211.631 19.0527C210.51 19.0527 209.65 19.2623 209.053 19.6814C208.455 20.1006 208.156 20.6553 208.156 21.3457C208.156 21.8881 208.355 22.3443 208.754 22.7141C209.152 23.0839 209.638 23.3798 210.211 23.6017C210.784 23.799 211.631 24.0578 212.752 24.3784C214.246 24.7729 215.467 25.1797 216.413 25.5988C217.385 25.9933 218.219 26.585 218.916 27.374C219.614 28.163 219.975 29.2109 220 30.5176C220 31.6765 219.676 32.712 219.029 33.6243C218.381 34.5365 217.459 35.2515 216.264 35.7693C215.093 36.2871 213.711 36.546 212.116 36.546Z" fill="#4AA69D"/>
<path d="M47.4821 23.5C47.4821 36.4787 36.8529 47 23.7411 47C10.6292 47 0 36.4787 0 23.5C0 10.5213 10.6292 0 23.7411 0C36.8529 0 47.4821 10.5213 47.4821 23.5Z" fill="url(#paint0_linear_148_192)"/>
<defs>
<linearGradient id="paint0_linear_148_192" x1="23.7411" y1="0" x2="23.7411" y2="47" gradientUnits="userSpaceOnUse">
<stop stop-color="#900000"/>
<stop offset="0.5" stop-color="#EDCC71"/>
<stop offset="1" stop-color="#4AA69D"/>
</linearGradient>
</defs>
</svg>
