<svg width="270" height="266" viewBox="0 0 270 266" fill="none" xmlns="http://www.w3.org/2000/svg">
<ellipse cx="195.772" cy="192.101" rx="74.2302" ry="73.8223" fill="#E86565"/>
<path fill-rule="evenodd" clip-rule="evenodd" d="M171.428 110.917C154.955 110.352 141.703 97.1002 141.138 80.6268C127.021 71.9152 110.39 66.8887 92.5836 66.8887C41.4511 66.8887 0 108.34 0 159.472C0 210.605 41.4511 252.056 92.5836 252.056C143.716 252.056 185.167 210.605 185.167 159.472C185.167 141.666 180.14 125.034 171.428 110.917Z" fill="#4AA69D"/>
<path fill-rule="evenodd" clip-rule="evenodd" d="M172.524 159.064C216.448 159.064 252.056 123.457 252.056 79.5322C252.056 35.6078 216.448 0 172.524 0C128.599 0 92.9917 35.6078 92.9917 79.5322C92.9917 123.457 128.599 159.064 172.524 159.064ZM172.524 110.936C189.868 110.936 203.928 96.8755 203.928 79.5312C203.928 62.1869 189.868 48.1266 172.524 48.1266C155.179 48.1266 141.119 62.1869 141.119 79.5312C141.119 96.8755 155.179 110.936 172.524 110.936Z" fill="#EDCC71"/>
<ellipse cx="195.771" cy="192.101" rx="49.7579" ry="50.1658" fill="#4AA69D"/>
<circle cx="196.18" cy="192.101" r="25.6947" fill="#EDCC71"/>
<path fill-rule="evenodd" clip-rule="evenodd" d="M172.115 135.407C202.749 135.407 227.583 110.391 227.583 79.5314C227.583 48.6722 202.749 23.6558 172.115 23.6558C141.481 23.6558 116.647 48.6722 116.647 79.5314C116.647 110.391 141.481 135.407 172.115 135.407ZM172.523 110.936C189.868 110.936 203.928 96.8753 203.928 79.5311C203.928 62.1868 189.868 48.1265 172.523 48.1265C155.179 48.1265 141.119 62.1868 141.119 79.5311C141.119 96.8753 155.179 110.936 172.523 110.936Z" fill="#4AA69D"/>
<circle cx="92.5836" cy="159.473" r="70.5595" fill="#5767E5"/>
<circle cx="92.5831" cy="159.472" r="46.9029" fill="#E0A676"/>
<ellipse cx="92.5837" cy="159.064" rx="22.4318" ry="22.8397" fill="#DF6D6D"/>
<ellipse cx="172.523" cy="79.9404" rx="31.4046" ry="31.8124" fill="#A6D68D"/>
</svg>
